<svg width="15" height="14" viewBox="0 0 15 14" fill="none" xmlns="http://www.w3.org/2000/svg">
<path fill-rule="evenodd" clip-rule="evenodd" d="M6.3335 1.16663C5.86937 1.16663 5.42425 1.351 5.09606 1.67919C4.76787 2.00738 4.5835 2.4525 4.5835 2.91663V3.49996H2.8335C1.867 3.49996 1.0835 4.28346 1.0835 5.24996V11.0833C1.0835 12.0498 1.867 12.8333 2.8335 12.8333H12.1668C13.1333 12.8333 13.9168 12.0498 13.9168 11.0833V5.24996C13.9168 4.28346 13.1333 3.49996 12.1668 3.49996H10.4168V2.91663C10.4168 2.4525 10.2325 2.00738 9.90427 1.67919C9.57608 1.351 9.13096 1.16663 8.66683 1.16663H6.3335ZM9.25016 3.49996V2.91663C9.25016 2.76192 9.18871 2.61354 9.07931 2.50415C8.96991 2.39475 8.82154 2.33329 8.66683 2.33329H6.3335C6.17879 2.33329 6.03041 2.39475 5.92102 2.50415C5.81162 2.61354 5.75016 2.76192 5.75016 2.91663V3.49996H9.25016ZM5.75016 4.66663H9.25016V11.6666H5.75016V4.66663ZM4.5835 4.66663H2.8335C2.51133 4.66663 2.25016 4.92779 2.25016 5.24996V11.0833C2.25016 11.4055 2.51133 11.6666 2.8335 11.6666H4.5835V4.66663ZM10.4168 11.6666V4.66663H12.1668C12.489 4.66663 12.7502 4.92779 12.7502 5.24996V11.0833C12.7502 11.4055 12.489 11.6666 12.1668 11.6666H10.4168Z" fill="#FFD48E"/>
</svg>
