<svg width="15" height="14" viewBox="0 0 15 14" fill="none" xmlns="http://www.w3.org/2000/svg">
<path fill-rule="evenodd" clip-rule="evenodd" d="M1.08358 3.48988C1.08348 3.49564 1.08347 3.50139 1.08355 3.50715V10.5C1.08355 11.4638 1.86971 12.25 2.83355 12.25H12.1669C13.1307 12.25 13.9169 11.4638 13.9169 10.5V3.50721C13.917 3.50141 13.9169 3.4956 13.9169 3.4898C13.9113 2.53063 13.1273 1.75 12.1669 1.75H2.83355C1.87309 1.75 1.08905 2.53067 1.08358 3.48988ZM2.31238 3.2398C2.40885 3.04904 2.60724 2.91667 2.83355 2.91667H12.1669C12.3932 2.91667 12.5916 3.04904 12.688 3.2398L7.50021 6.87128L2.31238 3.2398ZM12.7502 4.62038V10.5C12.7502 10.8195 12.4864 11.0833 12.1669 11.0833H2.83355C2.51405 11.0833 2.25021 10.8195 2.25021 10.5V4.62038L7.16569 8.06122C7.36655 8.20182 7.63388 8.20182 7.83473 8.06122L12.7502 4.62038Z" fill="#FFD48E"/>
</svg>
